# xmcd CD database file
#
# Track frame offsets:
#	150
#	3667
#	11583
#	20163
#	32297
#	52970
#	66353
#	77197
#	108452
#	121688
#	134167
#
# Disc length: 1796 seconds
#
# Revision: 0
# Processed by: cddbd v1.5.1PL0 Copyright (c) Steve Scherf et al.
# Submitted via: CDex 1.51
#
DISCID=8e07020b
DTITLE=Franz L. - Die Männer sind schon die Liebe wert
DYEAR=2004
DGENRE=Jazz
TTITLE0=Begrüßung
TTITLE1=Die Männer sind schon die Liebe wert
TTITLE2=Original Charleston
TTITLE3=Wenn ich Dich seh', dann fange ich zu träumen an
TTITLE4=Komm doch in meine Arme!
TTITLE5=Die weiße Taube
TTITLE6=Ich fahr' in meiner kleinen Limousine
TTITLE7=Ballsirenen
TTITLE8=Tritsch-Tratsch Polka
TTITLE9=Sag beim Abschied leise "Servus"
TTITLE10=Fine
EXTD=YEAR: 2004
EXTT0=
EXTT1=
EXTT2=
EXTT3=
EXTT4=
EXTT5=
EXTT6=
EXTT7=
EXTT8=
EXTT9=
EXTT10=
PLAYORDER=
